# xmcd
#
# Track frame offsets:
#	150
#	10927
#	11987
#	18172
#	29912
#	41372
#	52920
#	64977
#	75995
#	86292
#	97502
#	108817
#	119925
#	129100
#	142942
#	153570
#	162872
#	171645
#	183120
#	194157
#	205327
#	217497
#	228050
#	235822
#	237035
#	246960
#	256487
#	267412
#	278607
#	287897
#	297480
#	307667
#	318445
#	329682
#	339820
#
# Disc length: 4683 seconds
# Revision: 2
# Processed by: cddbd v1.5.2PL0 Copyright (c) Steve Scherf et al.
# Submitted via: dBpowerAMP V12.0
#
DISCID=f1124923
DTITLE=Various Artist - Steppin' Out: Gonna Shake This Shack Tonight
DYEAR=2008
DGENRE=Country
TTITLE0=Lefty Frizzell - Steppin' Out
TTITLE1=Lefty Frizzell - Intro (If You've Got the Money)
TTITLE2=Lefty Frizzell - Sunday Down in Tennessee
TTITLE3=Lefty Frizzell - Cigarettes and Coffee Blues
TTITLE4=Lefty Frizzell - Shine, Shave, Shower (It's Saturday)
TTITLE5=Lefty Frizzell - When Payday Comes Around
TTITLE6=Lefty Frizzell - My Baby's Just Like Money
TTITLE7=Lefty Frizzell - You Want Everything But Me
TTITLE8=Lefty Frizzell - Give Me More, More, More (Of Your Kisses)
TTITLE9=Lefty Frizzell - If You Can Spare the Time (I Won't Miss the Money)
TTITLE10=Lefty Frizzell - I Won't Be Good for Nothin'
TTITLE11=Lefty Frizzell - I'm an Old, Old Man (Tryin' to Live While I Can)
TTITLE12=Lefty Frizzell - You Can Always Count on Me
TTITLE13=Lefty Frizzell - Run 'Em Off
TTITLE14=Lefty Frizzell - Mama!
TTITLE15=Lefty Frizzell - Just Can't Live That Fast (Any More)
TTITLE16=Lefty Frizzell - From an Angel to a Devil
TTITLE17=Lefty Frizzell - Sick, Sober and Sorry
TTITLE18=Lefty Frizzell - No One to Talk To (But the Blues)
TTITLE19=Lefty Frizzell - Time Out for the Blues
TTITLE20=Lefty Frizzell - You Win Again
TTITLE21=Lefty Frizzell - Cigarettes and Coffee Blues/Intro
TTITLE22=Lefty Frizzell - Desert Blues
TTITLE23=Lefty Frizzell - Intro/Stay All Night, Stay a Little Longer
TTITLE24=Lefty Frizzell - Somebody's Pushing
TTITLE25=David Frizzell - Mona Lisa
TTITLE26=Lefty Frizzell - My Bucket's Got a Hole in It
TTITLE27=Lefty Frizzell - You're Humbuggin' Me
TTITLE28=Lefty Frizzell - If You've Got the Money, I've Got the Time
TTITLE29=Lefty Frizzell - Always Late (With Your Kisses)
TTITLE30=Lefty Frizzell - Farther Than My Eyes Can See
TTITLE31=Lefty Frizzell - She's Gone, Gone, Gone
TTITLE32=Lefty Frizzell - My Blues Will Pass
TTITLE33=Lefty Frizzell - So What! Let It Rain
TTITLE34=Lefty Frizzell - Heaven's Plan
EXTD=
EXTT0=
EXTT1=
EXTT2=
EXTT3=
EXTT4=
EXTT5=
EXTT6=
EXTT7=
EXTT8=
EXTT9=
EXTT10=
EXTT11=
EXTT12=
EXTT13=
EXTT14=
EXTT15=
EXTT16=
EXTT17=
EXTT18=
EXTT19=
EXTT20=
EXTT21=
EXTT22=
EXTT23=
EXTT24=
EXTT25=
EXTT26=
EXTT27=
EXTT28=
EXTT29=
EXTT30=
EXTT31=
EXTT32=
EXTT33=
EXTT34=
PLAYORDER=
